<svg width="68" height="40" viewBox="0 0 68 40" fill="none" xmlns="http://www.w3.org/2000/svg">
<path fill-rule="evenodd" clip-rule="evenodd" d="M17.7527 4H51.6735H63.9009L58.1463 29.4877C57.3045 33.2155 53.9849 35.8635 50.1538 35.863H4L9.75235 10.3832C10.5943 6.65105 13.9174 3.99965 17.7527 4ZM20.4645 23.0046L24.9178 15.5234C25.6602 14.2771 27.0059 13.513 28.4593 13.5124H30.7197L22.3242 26.2585C21.9339 26.8511 21.271 27.2081 20.5602 27.2084H19.1824C18.2139 27.2066 17.3743 26.5395 17.1561 25.5983L14.3565 13.5124H16.654C17.9339 13.5125 19.0263 14.435 19.2375 15.694L20.4645 23.0046ZM29.4961 27.2084H31.2319C32.64 27.2076 33.8556 26.2245 34.1475 24.8505L36.5689 13.5102H35.0109C33.4994 13.51 32.1938 14.5642 31.8792 16.0387L29.4961 27.2084ZM50.7088 13.5124H54.8334L45.7062 20.064C47.8533 22.4466 49.9996 24.8296 52.1452 27.2129H48.5644C47.3525 27.2123 46.2036 26.6741 45.4293 25.7443L41.8011 21.39C41.6428 21.9949 41.4848 22.5967 41.3272 23.1955L41.0154 24.6552C40.6989 26.1451 39.3802 27.2108 37.8533 27.2107H36.3223L38.7989 15.5761C39.055 14.3735 40.1193 13.5132 41.352 13.5124H43.3906L42.2784 18.7559L47.782 14.5106C48.6201 13.8643 49.6494 13.5132 50.7088 13.5124Z" fill="white"/>
</svg>
